<svg xmlns="http://www.w3.org/2000/svg" xmlns:xlink="http://www.w3.org/1999/xlink" version="1.1" width="85" height="56" viewBox="0 0 85 56">
<defs>
<clipPath id="clip_0">
<path transform="matrix(1,0,0,-1,0,56)" d="M0 56H85V0H0Z"/>
</clipPath>
</defs>
<g id="layer_1" data-name="Layer 1">
<path transform="matrix(1,0,0,-1,0,56)" d="M75 16.618H10V39.383H75Z" fill="#ffffff" fill-rule="evenodd"/>
<g clip-path="url(#clip_0)">
<path transform="matrix(1,0,0,-1,26.0135,22.632)" d="M0 0C-.013 .015-.026 .031-.039 .046-.089 .01-.142-.023-.189-.062-1.508-1.169-2.829-2.276-4.147-3.385-5.059-4.153-5.773-4.158-6.683-3.394-7.953-2.328-9.221-1.261-10.491-.195-10.55-.145-10.62-.108-10.686-.065-10.665-.194-10.604-.276-10.538-.355-9.466-1.633-8.387-2.906-7.323-4.19-6.641-5.012-6.659-5.759-7.345-6.573-8.152-7.532-8.959-8.493-9.765-9.453-10.124-9.881-10.48-10.312-10.838-10.741-10.747-10.744-10.696-10.711-10.649-10.672-9.321-9.557-7.997-8.437-6.662-7.331-6.439-7.146-6.183-6.984-5.916-6.872-5.253-6.594-4.706-6.882-4.208-7.297-2.935-8.359-1.668-9.428-.398-10.493-.313-10.564-.222-10.628-.134-10.695-.143-10.582-.186-10.511-.238-10.448-1.311-9.171-2.383-7.892-3.459-6.618-4.205-5.734-4.198-4.991-3.45-4.107-2.295-2.743-1.149-1.369 0 0M.222 3.655C.439 3.534 .682 3.443 .868 3.285 1.482 2.762 1.587 2.105 1.276 1.341 1.475 1.394 1.637 1.453 1.804 1.481 2.936 1.666 3.889 .55 3.501-.531 3.296-1.102 2.979-1.634 2.78-2.208 1.899-4.751 2.051-7.237 3.265-9.649 3.462-10.04 3.659-10.434 3.591-10.89 3.452-11.815 2.532-12.414 1.63-12.175 1.526-12.148 1.424-12.11 1.285-12.066 1.311-12.157 1.326-12.225 1.349-12.291 1.568-12.936 1.426-13.501 .939-13.963 .444-14.432-.125-14.492-.756-14.236-1.62-13.884-2.471-13.446-3.372-13.248-5.504-12.778-7.595-12.978-9.571-13.987-9.745-14.076-9.922-14.16-10.102-14.239-10.712-14.505-11.276-14.427-11.766-13.971-12.261-13.511-12.397-12.947-12.194-12.302-12.174-12.241-12.15-12.18-12.115-12.083-12.185-12.096-12.231-12.099-12.274-12.113-13.206-12.423-13.993-12.062-14.369-11.152-14.389-11.102-14.416-11.055-14.44-11.006V-10.417C-14.292-10.092-14.156-9.762-13.996-9.443-13.109-7.677-12.935-5.809-13.174-3.878-13.332-2.602-13.924-1.484-14.44-.338V.317C-14.408 .371-14.372 .423-14.347 .48-13.966 1.323-13.211 1.669-12.333 1.405-12.277 1.388-12.219 1.38-12.122 1.359-12.39 2.04-12.342 2.649-11.847 3.151-11.64 3.36-11.352 3.489-11.102 3.655H-10.447C-10.192 3.539-9.93 3.436-9.683 3.306-7.731 2.284-5.667 2.094-3.527 2.461-2.397 2.655-1.407 3.221-.367 3.655Z" fill="#cc0000" fill-rule="evenodd"/>
<path transform="matrix(1,0,0,-1,53.0612,27.5686)" d="M0 0C0 .036 0 .071 0 .107 .085 .122 .171 .133 .255 .151 .744 .254 1.248 .311 1.718 .471 3.603 1.114 4.411 2.56 4.015 4.514 3.731 5.909 2.997 6.709 1.651 6.915 .904 7.03 .131 6.996-.63 6.993-.993 6.992-1.07 6.864-1.08 6.457-1.11 5.172-1.147 3.887-1.166 2.601-1.215-.581-1.257-3.763-1.298-6.945-1.306-7.582-1.149-7.798-.514-7.812 .519-7.834 1.56-7.856 2.584-7.75 3.793-7.624 4.602-6.903 4.898-5.709 5.022-5.209 5.071-4.675 5.061-4.158 5.027-2.243 4.046-.943 2.21-.399 1.599-.217 .951-.159 .32-.046 .214-.027 .107-.015 0 0M-5.44 7.573C-5.309 7.597-5.277 7.608-5.245 7.608-2.519 7.606 .207 7.612 2.933 7.593 3.698 7.588 4.446 7.437 5.163 7.145 7.381 6.241 7.696 3.36 6.428 1.828 5.882 1.168 5.213 .678 4.456 .296 4.36 .248 4.265 .199 4.167 .148 4.704-.075 5.244-.258 5.746-.516 7.855-1.601 8.716-3.881 7.854-6.062 7.322-7.408 6.255-8.087 4.891-8.351 4.445-8.438 3.982-8.474 3.527-8.475 .626-8.486-2.274-8.481-5.175-8.481-5.241-8.481-5.309-8.492-5.371-8.476-5.424-8.463-5.471-8.42-5.52-8.389-5.484-8.343-5.455-8.264-5.411-8.255-4.441-8.054-4.349-7.301-4.336-6.521-4.316-5.365-4.323-4.209-4.321-3.053-4.317-.96-4.312 1.134-4.31 3.228-4.309 4.219-4.293 5.211-4.322 6.202-4.339 6.8-4.568 7.288-5.244 7.413-5.296 7.423-5.338 7.488-5.44 7.573" fill-rule="evenodd"/>
<path transform="matrix(1,0,0,-1,36.2395,27.9285)" d="M0 0C-.004 0-.007 0-.011 0-.011-2.169-.015-4.339-.009-6.508-.007-7.125 .193-7.354 .811-7.43 1.81-7.552 2.806-7.516 3.805-7.363 5.217-7.146 6.23-6.395 6.92-5.175 7.096-4.864 7.271-4.543 7.389-4.207 8.421-1.267 8.166 1.613 6.849 4.392 6.177 5.812 5.001 6.741 3.455 7.081 2.643 7.259 1.795 7.294 .96 7.339 .094 7.386 .007 7.289 .003 6.409-.006 4.273 0 2.136 0 0M-4.116 7.956C-4.012 7.96-3.907 7.969-3.802 7.969-1.37 7.97 1.063 8.017 3.494 7.957 6.348 7.888 8.634 6.709 10.116 4.202 11.03 2.655 11.246 .94 11.112-.82 10.971-2.686 10.339-4.371 9.071-5.774 7.677-7.317 5.964-8.14 3.846-8.107 1.523-8.072-.801-8.098-3.124-8.1-3.429-8.1-3.734-8.12-4.039-8.115-4.105-8.114-4.17-8.048-4.236-8.011-4.183-7.966-4.137-7.907-4.076-7.879-3.959-7.825-3.831-7.792-3.71-7.742-3.297-7.571-3.085-7.275-3.075-6.812-3.042-5.406-2.954-4.001-2.953-2.596-2.953 .151-2.995 2.899-3.024 5.646-3.028 5.984-3.058 6.321-3.079 6.658-3.111 7.183-3.384 7.526-3.872 7.71-3.972 7.748-4.061 7.81-4.156 7.861-4.142 7.893-4.129 7.924-4.116 7.956" fill-rule="evenodd"/>
<path transform="matrix(1,0,0,-1,72.4339,20.004799)" d="M0 0V-2.946C-.096-2.855-.167-2.819-.184-2.766-.601-1.507-1.572-.915-2.782-.637-3.675-.431-4.575-.416-5.465-.678-6.996-1.129-7.861-2.56-7.534-4.096-7.403-4.712-7.04-5.153-6.507-5.464-5.675-5.949-4.737-6.117-3.826-6.371-3.032-6.593-2.209-6.768-1.467-7.111 .166-7.867 .981-9.183 .992-11.011 .998-12.037 .876-13.01 .298-13.882-.507-15.096-1.711-15.679-3.078-15.988-4.995-16.422-6.89-16.204-8.775-15.764-9.04-15.703-9.304-15.637-9.565-15.561-9.853-15.478-10.101-15.478-10.268-15.783-10.295-15.832-10.381-15.849-10.48-15.904V-12.714C-10.377-12.813-10.294-12.855-10.284-12.91-10.031-14.287-8.973-14.832-7.818-15.205-6.574-15.606-5.304-15.589-4.069-15.104-2.083-14.325-1.767-11.991-2.311-10.756-2.573-10.159-3.008-9.712-3.626-9.511-4.525-9.219-5.445-8.989-6.352-8.719-7.325-8.429-8.267-8.079-9.092-7.453-11.673-5.497-10.83-1.465-8.088-.359-6.943 .104-5.752 .282-4.536 .189-3.399 .102-2.269-.077-1.137-.228-.801-.273-.488-.286-.214-.044-.181-.015-.115-.022 0 0" fill-rule="evenodd"/>
<path transform="matrix(1,0,0,-1,26.0033,22.632)" d="M0 0C-1.149-1.369-2.295-2.742-3.45-4.107-4.198-4.991-4.205-5.734-3.46-6.618-2.384-7.892-1.311-9.17-.238-10.448-.186-10.511-.143-10.582-.134-10.695-.222-10.628-.313-10.564-.398-10.493-1.668-9.428-2.935-8.359-4.208-7.297-4.706-6.882-5.253-6.594-5.916-6.872-6.183-6.984-6.439-7.146-6.662-7.331-7.997-8.437-9.321-9.557-10.649-10.672-10.696-10.711-10.747-10.744-10.838-10.741-10.481-10.312-10.124-9.881-9.765-9.453-8.959-8.492-8.152-7.532-7.345-6.573-6.659-5.759-6.641-5.012-7.323-4.19-8.387-2.906-9.466-1.633-10.538-.355-10.604-.276-10.665-.194-10.686-.065-10.62-.108-10.55-.145-10.491-.195-9.221-1.261-7.953-2.328-6.683-3.394-5.773-4.158-5.059-4.153-4.147-3.385-2.829-2.276-1.509-1.169-.189-.062-.142-.023-.089 .01-.04 .046-.026 .031-.013 .015 0 0" fill="#ffffff" fill-rule="evenodd"/>
</g>
</g>
</svg>
