<svg xmlns="http://www.w3.org/2000/svg" xmlns:xlink="http://www.w3.org/1999/xlink" version="1.1" width="85" height="56" viewBox="0 0 85 56">
<defs>
<clipPath id="clip_0">
<path transform="matrix(1,0,0,-1,0,56)" d="M0 56H85V0H0Z"/>
</clipPath>
</defs>
<g id="layer_1" data-name="Layer 1">
<path transform="matrix(1,0,0,-1,0,56)" d="M10.035 21.808H74.946V38.025H10.035Z" fill="#004e95"/>
<path transform="matrix(1,0,0,-1,0,56)" d="M10.035 21.808H74.946V23.43H10.035Z" fill="#f9a51a"/>
<path transform="matrix(1,0,0,-1,17.8407,21.663502)" d="M0 0-.112-1.185H-2.208L-2.404-2.831H-.3L-.44-4.027H-2.546L-2.947-7.258H-4.155L-3.302 .01Z" fill="#ffffff"/>
<g clip-path="url(#clip_0)">
<path transform="matrix(1,0,0,-1,18.454,21.666302)" d="M0 0-.824-7.226C-.824-7.226 2.737-7.298 2.737-7.216 2.737-7.136 2.859-6.071 2.859-6.071H.475L.716-4.004H3.109L3.257-2.797H.882L1.077-1.165H3.462L3.601 .01Z" fill="#ffffff"/>
<path transform="matrix(1,0,0,-1,28.2099,21.666302)" d="M0 0-.826-7.226C-.826-7.226 2.736-7.298 2.736-7.216 2.736-7.136 2.858-6.071 2.858-6.071H.472L.715-4.004H3.108L3.256-2.797H.881L1.076-1.165H3.46L3.6 .01Z" fill="#ffffff"/>
<path transform="matrix(1,0,0,-1,24.6785,27.7366)" d="M0 0C0 0-1.117-.073-1.416-.035L-.859 4.88 .024 4.897C.024 4.897 1.289 4.897 1.652 3.277 1.655 3.268 1.657 3.257 1.658 3.247 2.013 1.596 .966 .136 0 0M-.289 6.053-1.908 6.061-2.726-1.164H-1.544V-1.158C-1.292-1.183 .13-1.292 1.015-.776 1.015-.776 2.84-.027 2.823 2.968 2.823 2.968 2.716 5.718-.289 6.053" fill="#ffffff"/>
<path transform="matrix(1,0,0,-1,33.639,22.8433)" d="M0 0C0 0 1.176 .215 1.33-.505 1.33-.505 1.6-1.841 .375-2.018L-.228-2.012ZM2.563-6.078 1.035-2.97C1.035-2.97 2.368-2.725 2.494-.842 2.494-.842 2.522 1.041 .658 1.149H-1.08L-1.907-6.078H-.688L-.35-3.097-.19-3.108-.189-3.107 1.317-6.078Z" fill="#ffffff"/>
<path transform="matrix(1,0,0,-1,39.1376,26.2093)" d="M0 0 .965 1.844 1.433-.01ZM2.114-2.712H3.366L1.263 4.563-2.789-2.7H-1.414L-.609-1.163H1.724Z" fill="#ffffff"/>
<path transform="matrix(1,0,0,-1,55.3675,26.2093)" d="M0 0 .966 1.844 1.433-.01ZM2.114-2.712H3.366L1.263 4.563-2.789-2.7H-1.414L-.609-1.163H1.724Z" fill="#ffffff"/>
<path transform="matrix(1,0,0,-1,43.5998,21.7224)" d="M0 0-.848-7.199H2.411L2.534-6.057H.516L1.158 .011Z" fill="#ffffff"/>
<path transform="matrix(1,0,0,-1,51.4052,27.4768)" d="M0 0C0 0-.313-.46-1.514-.303L-1.55-.306-1.301 1.781C-1.1 1.797-.629 1.823-.469 1.721-.469 1.721 .709 1.431 0 0M-.938 4.754C-.938 4.754-.205 4.807 .06 4.373 .06 4.373 .577 3.361-.529 2.889L-1.174 2.851-.961 4.636ZM.529 2.338C.529 2.338 1.502 3.165 1.249 4.255 1.249 4.255 1.13 5.646-.518 5.791H-2.104L-2.921-1.432H-1.851-1.683C-1.683-1.432-1.485-1.428-1.081-1.431-1.081-1.431 .517-1.445 1.058-.538 1.058-.538 2.115 1.05 .529 2.338" fill="#ffffff"/>
<path transform="matrix(1,0,0,-1,60.2286,21.6237)" d="M0 0-1.046-7.287H.112L.738-2.585 4.672-7.258 5.666-.033H4.422L3.912-4.376Z" fill="#ffffff"/>
<path transform="matrix(1,0,0,-1,71.2943,21.6557)" d="M0 0H-1.378L-3.7-2.537-3.409 0-4.655 .014-5.489-7.266H-4.243L-3.911-4.377-3.716-4.158-1.56-7.238H-.144L-2.818-3.153Z" fill="#ffffff"/>
<path transform="matrix(1,0,0,-1,10.9707,36.9472)" d="M0 0C-.114 .191-.253 .415-.418 .674L-.659 1.04C-.771 1.208-.849 1.322-.889 1.383-.932 1.443-.959 1.48-.971 1.493-.902 1.486-.823 1.483-.733 1.483-.643 1.483-.564 1.486-.495 1.493-.47 1.426-.443 1.362-.412 1.301-.382 1.241-.331 1.154-.264 1.04L-.121 .792C.006 .579 .12 .395 .22 .242L.218 .244C.313 .39 .418 .562 .533 .76L.695 1.04C.755 1.14 .8 1.222 .83 1.282 .859 1.343 .889 1.413 .917 1.493 .968 1.486 1.025 1.483 1.088 1.483 1.151 1.483 1.207 1.486 1.257 1.493 1.244 1.48 1.218 1.443 1.175 1.383 1.133 1.322 1.057 1.208 .945 1.04L.721 .701C.569 .465 .439 .256 .33 .075V-.133C.33-.415 .331-.618 .335-.738 .339-.858 .346-.959 .359-1.039 .302-1.032 .237-1.029 .165-1.029 .092-1.029 .029-1.032-.029-1.039-.017-.959-.01-.858-.005-.738-.003-.618 0-.415 0-.133Z" fill="#004e95"/>
<path transform="matrix(1,0,0,-1,13.9853,37.8652)" d="M0 0C-.313 0-.564 .1-.752 .304-.941 .507-1.035 .777-1.035 1.115-1.035 1.471-.941 1.756-.752 1.97-.564 2.184-.313 2.291 0 2.291 .316 2.291 .568 2.189 .756 1.987 .944 1.784 1.038 1.513 1.038 1.175 1.038 .819 .944 .534 .756 .32 .568 .106 .316 0 0 0M-.021-.16C.413-.16 .764-.035 1.033 .214 1.303 .462 1.437 .788 1.437 1.19 1.437 1.564 1.307 1.867 1.046 2.101 .785 2.333 .443 2.45 .021 2.45-.412 2.45-.763 2.324-1.032 2.076-1.301 1.826-1.436 1.501-1.436 1.101-1.436 .726-1.304 .421-1.043 .189-.781-.043-.44-.16-.021-.16" fill="#004e95"/>
<path transform="matrix(1,0,0,-1,18.2875,36.8798)" d="M0 0C0-.375-.095-.658-.282-.853-.469-1.048-.745-1.145-1.107-1.145-1.475-1.145-1.748-1.062-1.924-.896-2.101-.729-2.189-.473-2.19-.125V.135L-2.197 .974C-2.2 1.122-2.202 1.226-2.206 1.287-2.209 1.347-2.213 1.393-2.22 1.426-2.161 1.418-2.094 1.414-2.02 1.414-1.946 1.414-1.88 1.418-1.821 1.426-1.828 1.392-1.834 1.345-1.837 1.284-1.841 1.225-1.845 1.121-1.85 .974-1.858 .726-1.862 .447-1.862 .138V-.012C-1.861-.331-1.793-.568-1.659-.722-1.527-.876-1.321-.953-1.046-.953-.756-.953-.546-.871-.412-.709-.278-.547-.213-.288-.215 .064V.135L-.22 .974C-.221 1.127-.223 1.234-.225 1.294-.226 1.354-.229 1.399-.231 1.426-.19 1.418-.144 1.414-.094 1.414-.042 1.414 .005 1.418 .045 1.426 .036 1.384 .03 1.332 .026 1.273 .021 1.212 .016 1.112 .01 .974 .004 .726 0 .447 0 .137Z" fill="#004e95"/>
<path transform="matrix(1,0,0,-1,19.4464,35.637)" d="M0 0C.098 .006 .205 .012 .322 .013 .525 .013 .68-.026 .788-.102 .895-.179 .949-.288 .949-.432 .949-.587 .878-.712 .738-.804 .598-.897 .411-.943 .177-.943 .116-.941 .056-.944 0-.948ZM-.347-2.223C-.351-2.285-.355-2.327-.36-2.349-.301-2.343-.236-2.339-.162-2.339-.09-2.339-.023-2.343 .034-2.349 .03-2.326 .025-2.283 .022-2.223 .019-2.163 .016-2.054 .01-1.897 .007-1.663 .004-1.4 .004-1.107H0 .13C.262-1.256 .412-1.432 .578-1.633L.794-1.897C.897-2.018 .971-2.109 1.016-2.169 1.062-2.229 1.101-2.289 1.133-2.349 1.203-2.343 1.285-2.339 1.375-2.339 1.466-2.339 1.546-2.343 1.617-2.349 1.601-2.337 1.567-2.3 1.513-2.24 1.458-2.179 1.359-2.065 1.212-1.897L1.003-1.652C.821-1.437 .665-1.249 .535-1.084 .721-1.054 .882-.999 1.018-.917 1.227-.789 1.332-.621 1.332-.414 1.332-.215 1.261-.066 1.119 .034 .977 .134 .764 .183 .479 .183 .434 .183 .382 .183 .324 .181 .266 .179 .201 .177 .13 .171 .086 .17 .022 .17-.058 .171-.14 .173-.24 .177-.36 .183-.355 .16-.351 .119-.348 .059-.346-.003-.342-.112-.336-.269-.333-.509-.33-.78-.33-1.084-.33-1.383-.333-1.653-.336-1.896-.342-2.054-.344-2.163-.347-2.223" fill="#004e95"/>
<path transform="matrix(1,0,0,-1,23.0226,35.6498)" d="M0 0C.099 .01 .209 .015 .333 .015 .543 .015 .703-.026 .811-.105 .919-.185 .973-.304 .973-.461 .973-.627 .908-.759 .778-.858 .647-.958 .474-1.007 .256-1.007 .165-1.007 .079-1.004 0-.996ZM-.347-2.209C-.351-2.27-.355-2.313-.359-2.337-.301-2.33-.235-2.326-.163-2.326-.089-2.326-.023-2.33 .035-2.337 .03-2.314 .026-2.273 .023-2.212 .021-2.151 .016-2.042 .012-1.884 .005-1.669 .003-1.427 .004-1.161H0C.1-1.175 .212-1.18 .338-1.179 .661-1.179 .912-1.114 1.089-.986 1.267-.857 1.355-.676 1.355-.442 1.355-.225 1.28-.065 1.13 .039 .98 .144 .75 .196 .438 .196 .39 .196 .336 .195 .281 .194 .223 .192 .161 .19 .094 .185 .041 .182-.022 .181-.098 .181-.172 .181-.26 .182-.359 .185-.355 .161-.351 .119-.347 .058-.344-.001-.34-.111-.335-.267-.332-.508-.329-.777-.33-1.073-.33-1.372-.332-1.642-.335-1.884-.34-2.041-.344-2.149-.347-2.209" fill="#004e95"/>
<path transform="matrix(1,0,0,-1,24.8262,38.003099)" d="M0 0C.005 .023 .009 .066 .012 .126 .014 .187 .018 .295 .023 .452 .027 .698 .029 .975 .029 1.284 .029 1.594 .027 1.87 .023 2.114 .018 2.27 .014 2.379 .012 2.44 .009 2.499 .005 2.541 0 2.566 .045 2.558 .121 2.551 .226 2.545 .333 2.54 .439 2.538 .547 2.538H.839C.956 2.538 1.062 2.54 1.154 2.545 1.247 2.551 1.328 2.56 1.395 2.571 1.388 2.534 1.384 2.491 1.384 2.444 1.384 2.397 1.388 2.355 1.395 2.318 1.351 2.328 1.275 2.335 1.163 2.343 1.052 2.348 .945 2.352 .839 2.352H.703C.585 2.353 .474 2.35 .37 2.347L.36 1.427 .702 1.428C.815 1.428 .932 1.431 1.051 1.438 1.169 1.445 1.253 1.452 1.297 1.461 1.289 1.424 1.286 1.382 1.286 1.334 1.286 1.288 1.289 1.246 1.297 1.209 1.253 1.218 1.169 1.225 1.051 1.233 .932 1.238 .815 1.241 .702 1.241L.361 1.243C.36 .85 .363 .508 .37 .218L.63 .215H.76C.877 .215 1.001 .218 1.127 .226 1.255 .234 1.344 .243 1.395 .253 1.388 .215 1.384 .172 1.384 .122 1.384 .075 1.388 .033 1.395-.005 1.341 .004 1.259 .011 1.147 .018 1.036 .025 .933 .027 .839 .027H.547C.448 .027 .346 .025 .239 .02 .134 .014 .055 .008 0 0" fill="#004e95"/>
<path transform="matrix(1,0,0,-1,27.256,35.637)" d="M0 0C.097 .006 .205 .012 .324 .013 .526 .013 .68-.026 .787-.102 .895-.179 .95-.288 .95-.432 .95-.587 .88-.712 .739-.804 .599-.897 .411-.943 .177-.943 .116-.941 .057-.944 0-.948ZM-.347-2.223C-.351-2.285-.355-2.327-.359-2.349-.301-2.343-.235-2.339-.162-2.339-.09-2.339-.023-2.343 .035-2.349 .03-2.326 .026-2.283 .023-2.223 .02-2.163 .016-2.054 .012-1.897 .007-1.663 .004-1.4 .004-1.107H0 .13C.264-1.256 .412-1.432 .58-1.633L.795-1.897C.898-2.018 .972-2.109 1.016-2.169 1.062-2.229 1.101-2.289 1.133-2.349 1.205-2.343 1.285-2.339 1.376-2.339 1.466-2.339 1.546-2.343 1.618-2.349 1.602-2.337 1.567-2.3 1.514-2.24 1.459-2.179 1.359-2.065 1.212-1.897L1.003-1.652C.821-1.437 .665-1.249 .535-1.084 .723-1.054 .882-.999 1.017-.917 1.228-.789 1.332-.621 1.332-.414 1.332-.215 1.261-.066 1.119 .034 .977 .134 .764 .183 .479 .183 .434 .183 .382 .183 .325 .181 .266 .179 .203 .177 .13 .171 .086 .17 .023 .17-.058 .171-.139 .173-.239 .177-.359 .183-.355 .16-.351 .119-.348 .059-.344-.003-.341-.112-.336-.269-.331-.509-.33-.78-.33-1.084-.33-1.383-.331-1.653-.336-1.896-.341-2.054-.344-2.163-.347-2.223" fill="#004e95"/>
<path transform="matrix(1,0,0,-1,29.3028,37.5341)" d="M0 0C.004 .243 .005 .517 .005 .822 .005 1.127 .004 1.401 0 1.644-.005 1.801-.009 1.91-.012 1.971-.016 2.03-.02 2.072-.023 2.097 .022 2.089 .108 2.082 .231 2.076 .357 2.071 .487 2.068 .621 2.068H.856C.975 2.068 1.078 2.071 1.171 2.076 1.263 2.082 1.344 2.091 1.412 2.103 1.405 2.064 1.402 2.022 1.402 1.975 1.402 1.928 1.405 1.885 1.412 1.849 1.37 1.859 1.293 1.866 1.182 1.874 1.071 1.879 .963 1.883 .856 1.883H.702C.576 1.884 .46 1.881 .351 1.878 .344 1.622 .34 1.322 .339 .978L.73 .982C.847 .982 .965 .984 1.085 .991 1.203 .997 1.284 1.005 1.325 1.014 1.319 .978 1.314 .935 1.314 .887 1.314 .84 1.319 .799 1.325 .762 1.294 .769 1.219 .774 1.101 .781 .981 .788 .857 .792 .73 .795L.339 .8C.339 .503 .341 .236 .347 0 .352-.158 .356-.268 .358-.327 .361-.388 .365-.43 .37-.452 .312-.446 .247-.442 .173-.442 .1-.442 .035-.446-.023-.452-.02-.429-.014-.386-.01-.325-.008-.265-.005-.157 0 0" fill="#004e95"/>
<path transform="matrix(1,0,0,-1,31.2752,38.003099)" d="M0 0C.004 .023 .008 .066 .01 .126 .014 .187 .018 .295 .022 .452 .026 .698 .029 .975 .029 1.284 .029 1.594 .026 1.87 .022 2.114 .018 2.27 .014 2.379 .01 2.44 .008 2.499 .004 2.541 0 2.566 .044 2.558 .12 2.551 .226 2.545 .331 2.54 .438 2.538 .547 2.538H.839C.956 2.538 1.062 2.54 1.154 2.545 1.247 2.551 1.327 2.56 1.395 2.571 1.388 2.534 1.384 2.491 1.384 2.444 1.384 2.397 1.388 2.355 1.395 2.318 1.35 2.328 1.273 2.335 1.162 2.343 1.051 2.348 .943 2.352 .839 2.352H.703C.585 2.353 .473 2.35 .37 2.347L.359 1.427 .7 1.428C.815 1.428 .93 1.431 1.05 1.438 1.169 1.445 1.251 1.452 1.297 1.461 1.289 1.424 1.285 1.382 1.285 1.334 1.285 1.288 1.289 1.246 1.297 1.209 1.251 1.218 1.169 1.225 1.05 1.233 .93 1.238 .815 1.241 .7 1.241L.36 1.243C.359 .85 .363 .508 .37 .218L.63 .215H.76C.877 .215 .999 .218 1.127 .226 1.254 .234 1.344 .243 1.395 .253 1.388 .215 1.384 .172 1.384 .122 1.384 .075 1.388 .033 1.395-.005 1.341 .004 1.258 .011 1.146 .018 1.034 .025 .932 .027 .839 .027H.547C.447 .027 .344 .025 .239 .02 .132 .014 .053 .008 0 0" fill="#004e95"/>
<path transform="matrix(1,0,0,-1,35.4282,37.6073)" d="M0 0C-.009-.041-.017-.077-.021-.107-.026-.138-.03-.175-.033-.217-.166-.286-.303-.337-.443-.37-.583-.401-.74-.418-.911-.418-1.311-.418-1.635-.301-1.884-.068-2.132 .166-2.257 .469-2.257 .845-2.257 1.246-2.125 1.57-1.861 1.818-1.597 2.068-1.252 2.192-.828 2.192-.664 2.192-.513 2.18-.374 2.152-.235 2.126-.096 2.085 .041 2.029 .022 1.971 .005 1.92-.008 1.878-.02 1.835-.033 1.785-.047 1.725L-.109 1.72C-.194 1.816-.3 1.891-.43 1.948-.558 2.004-.689 2.033-.821 2.033-1.134 2.033-1.385 1.926-1.574 1.711-1.762 1.498-1.857 1.212-1.857 .856-1.857 .533-1.761 .267-1.57 .057-1.377-.153-1.136-.258-.842-.258-.688-.258-.539-.232-.394-.179-.251-.124-.13-.052-.033 .04Z" fill="#004e95"/>
<path transform="matrix(1,0,0,-1,36.5807,37.5356)" d="M0 0C.003 .243 .005 .513 .005 .81 .007 1.227 .003 1.586-.007 1.886L-.211 1.884C-.337 1.884-.463 1.88-.59 1.874-.716 1.867-.802 1.86-.846 1.85-.838 1.887-.834 1.929-.834 1.977-.834 2.025-.838 2.067-.846 2.104-.706 2.095-.546 2.087-.368 2.08-.19 2.074-.053 2.07 .043 2.07H.144 .246C.348 2.07 .49 2.074 .668 2.08 .845 2.087 1.001 2.095 1.134 2.104 1.127 2.067 1.123 2.025 1.123 1.977 1.123 1.929 1.127 1.887 1.134 1.85 1.088 1.86 1.002 1.867 .875 1.874 .748 1.88 .622 1.884 .499 1.884H.353C.344 1.586 .341 1.228 .341 .812 .341 .511 .343 .24 .347 0 .352-.156 .356-.264 .359-.325 .361-.386 .365-.427 .37-.45 .312-.444 .247-.44 .173-.44 .1-.44 .034-.444-.023-.45-.019-.427-.014-.384-.012-.324-.009-.264-.005-.156 0 0" fill="#004e95"/>
<path transform="matrix(1,0,0,-1,39.7292,35.667604)" d="M0 0C.09 .016 .187 .023 .293 .022 .483 .022 .635-.016 .75-.093 .864-.168 .92-.27 .92-.397 .92-.542 .859-.66 .734-.748 .611-.836 .445-.88 .238-.88H0ZM-.347-2.194C-.351-2.254-.355-2.296-.36-2.319L-.171-2.308 .318-2.319C.635-2.319 .891-2.252 1.089-2.12 1.285-1.987 1.384-1.813 1.384-1.6 1.384-1.376 1.3-1.208 1.129-1.096 1.015-1.022 .863-.971 .673-.946 .807-.916 .923-.869 1.023-.804 1.206-.684 1.297-.528 1.297-.337 1.297-.152 1.222-.016 1.069 .076 .917 .168 .689 .214 .383 .214L-.171 .203-.36 .214C-.355 .191-.351 .15-.348 .088-.344 .029-.34-.081-.336-.239-.331-.478-.329-.75-.33-1.053-.33-1.352-.333-1.622-.336-1.866-.34-2.024-.344-2.133-.347-2.194M0-1.066H.257C.504-1.066 .691-1.107 .817-1.191 .945-1.274 1.007-1.398 1.007-1.561 1.007-1.748 .942-1.888 .812-1.984 .684-2.079 .491-2.127 .239-2.127 .155-2.127 .074-2.121 0-2.111Z" fill="#004e95"/>
<path transform="matrix(1,0,0,-1,42.6712,35.9836)" d="M0 0V0L.334-.732 .372-.818C.255-.832 .129-.841-.007-.843-.144-.845-.269-.838-.383-.822L-.342-.728C-.221-.46-.16-.326-.16-.326-.16-.326-.107-.217 0 0M-1.106-1.886C-1.138-1.947-1.162-1.987-1.173-2.002-1.129-1.996-1.077-1.992-1.02-1.992-.963-1.992-.911-1.996-.865-2.002-.847-1.93-.828-1.863-.807-1.803-.785-1.741-.751-1.658-.704-1.55-.642-1.397-.569-1.232-.49-1.058-.348-1.031-.186-1.021-.001-1.027 .177-1.03 .336-1.04 .479-1.058L.696-1.55C.747-1.668 .784-1.756 .806-1.817 .828-1.878 .847-1.94 .864-2.002 .926-1.996 .996-1.992 1.076-1.992 1.155-1.992 1.226-1.996 1.288-2.002L1.065-1.55C.949-1.312 .824-1.044 .688-.745 .456-.243 .27 .178 .127 .519H.081 .035C-.107 .175-.298-.247-.537-.749-.677-1.047-.808-1.313-.929-1.55-1.014-1.714-1.073-1.826-1.106-1.886" fill="#004e95"/>
<path transform="matrix(1,0,0,-1,44.7376,37.5341)" d="M0 0C.006-.154 .012-.26 .016-.321 .02-.381 .025-.425 .03-.452-.01-.446-.057-.442-.109-.442-.161-.442-.208-.446-.248-.452-.243-.429-.239-.387-.236-.326-.234-.266-.23-.157-.225 0-.221 .243-.22 .514-.22 .812-.22 1.11-.221 1.378-.225 1.617-.23 1.774-.234 1.881-.236 1.943-.239 2.003-.243 2.045-.248 2.068H-.187-.128C.199 1.715 .616 1.283 1.125 .771L1.757 .144 1.758 .79C1.758 1.1 1.755 1.379 1.75 1.628 1.745 1.786 1.741 1.894 1.739 1.956 1.736 2.015 1.732 2.058 1.727 2.08 1.767 2.072 1.811 2.068 1.863 2.068 1.914 2.068 1.959 2.072 2 2.08 1.995 2.058 1.991 2.015 1.988 1.956 1.984 1.894 1.982 1.786 1.976 1.628 1.972 1.38 1.97 1.101 1.97 .791 1.97 .279 1.976-.148 1.987-.491H1.931 1.875C1.549-.138 1.132 .295 .622 .807L-.012 1.439V.813C-.012 .511-.007 .24 0 0" fill="#004e95"/>
<path transform="matrix(1,0,0,-1,47.9081,37.533)" d="M0 0C.005-.157 .009-.266 .013-.327 .014-.387 .018-.43 .024-.454-.035-.447-.1-.443-.174-.443-.245-.443-.312-.447-.37-.454-.365-.431-.361-.39-.359-.328-.356-.268-.352-.158-.347-.001-.343 .242-.342 .514-.342 .812-.342 1.114-.343 1.387-.347 1.626-.352 1.784-.356 1.894-.359 1.954-.361 2.015-.365 2.056-.37 2.079-.312 2.071-.245 2.068-.174 2.068-.1 2.068-.035 2.071 .024 2.079 .018 2.054 .014 2.013 .013 1.953 .009 1.892 .005 1.783 0 1.627-.005 1.408-.007 1.169-.005 .91H0C.17 1.049 .369 1.23 .594 1.449 .841 1.688 1.037 1.895 1.186 2.068H1.388C1.463 2.068 1.531 2.071 1.589 2.079 1.563 2.063 1.515 2.026 1.446 1.966 1.375 1.906 1.246 1.793 1.059 1.627L.745 1.341 .34 .959 .76 .478 1.19 0C1.344-.17 1.449-.286 1.503-.347 1.559-.408 1.594-.443 1.608-.454 1.536-.447 1.455-.443 1.364-.443 1.272-.443 1.19-.447 1.119-.454 1.081-.391 1.04-.33 .991-.27 .942-.21 .865-.12 .758 0L.558 .226C.338 .47 .151 .672-.007 .834H-.005L-.008 .815C-.008 .512-.005 .241 0 0" fill="#004e95"/>
<path transform="matrix(1,0,0,-1,49.9832,37.5335)" d="M0 0C.004 .243 .007 .514 .007 .812 .007 1.115 .004 1.388 0 1.626-.004 1.784-.008 1.892-.01 1.952-.014 2.013-.018 2.056-.023 2.08 .035 2.072 .102 2.068 .174 2.068 .247 2.068 .313 2.072 .372 2.08 .367 2.056 .363 2.013 .36 1.952 .357 1.892 .354 1.784 .348 1.626 .344 1.385 .343 1.113 .343 .815 .343 .512 .344 .241 .348 0 .354-.157 .357-.266 .36-.327 .363-.387 .367-.429 .372-.452 .313-.446 .247-.442 .174-.442 .102-.442 .035-.446-.023-.452-.018-.429-.013-.387-.01-.326-.008-.266-.004-.157 0 0" fill="#004e95"/>
<path transform="matrix(1,0,0,-1,51.3983,37.5341)" d="M0 0C.005-.154 .01-.26 .014-.321 .018-.381 .023-.425 .029-.452-.011-.446-.058-.442-.11-.442-.162-.442-.208-.446-.249-.452-.244-.429-.24-.387-.238-.326-.234-.266-.23-.157-.226 0-.222 .243-.221 .514-.221 .812-.221 1.11-.222 1.378-.226 1.617-.23 1.774-.234 1.881-.238 1.943-.24 2.003-.244 2.045-.249 2.068H-.188-.129C.198 1.715 .615 1.283 1.124 .771L1.756 .144 1.758 .79C1.758 1.1 1.756 1.379 1.749 1.628 1.745 1.786 1.741 1.894 1.737 1.956 1.735 2.015 1.732 2.058 1.727 2.08 1.766 2.072 1.811 2.068 1.862 2.068 1.913 2.068 1.96 2.072 1.999 2.08 1.993 2.058 1.989 2.015 1.987 1.956 1.984 1.894 1.98 1.786 1.975 1.628 1.971 1.38 1.969 1.101 1.969 .791 1.969 .279 1.975-.148 1.987-.491H1.931 1.875C1.549-.138 1.132 .295 .622 .807L-.013 1.439V.813C-.011 .511-.008 .24 0 0" fill="#004e95"/>
<path transform="matrix(1,0,0,-1,55.4202,38.0251)" d="M0 0C-.417 0-.758 .117-1.017 .349-1.277 .581-1.407 .885-1.407 1.261-1.407 1.661-1.273 1.986-1.006 2.236-.738 2.485-.39 2.61 .04 2.61 .24 2.61 .425 2.591 .595 2.555 .764 2.517 .924 2.46 1.077 2.383 1.058 2.325 1.041 2.275 1.028 2.232 1.015 2.189 1.002 2.138 .988 2.077L.925 2.076C.819 2.189 .691 2.28 .538 2.349 .387 2.417 .235 2.451 .084 2.451-.246 2.451-.511 2.343-.71 2.129-.908 1.916-1.008 1.629-1.008 1.271-1.008 .935-.908 .664-.708 .463-.509 .26-.243 .16 .087 .16 .302 .16 .514 .2 .729 .282V.536C.729 .7 .726 .827 .721 .917 .716 1.008 .704 1.106 .689 1.214 .747 1.206 .815 1.204 .891 1.204 .967 1.204 1.034 1.206 1.093 1.214 1.084 1.173 1.077 1.121 1.072 1.061 1.068 1 1.066 .901 1.063 .762V.696C1.063 .527 1.064 .407 1.067 .335 1.071 .264 1.077 .204 1.088 .158 .773 .053 .41 0 0 0" fill="#004e95"/>
<path transform="matrix(1,0,0,-1,58.7662,35.6498)" d="M0 0C.099 .01 .209 .015 .331 .015 .542 .015 .702-.026 .811-.105 .919-.185 .973-.304 .973-.461 .973-.627 .908-.759 .777-.858 .647-.958 .473-1.007 .256-1.007 .165-1.007 .079-1.004 0-.996ZM-.347-2.209C-.351-2.27-.355-2.313-.36-2.337-.301-2.33-.236-2.326-.162-2.326-.09-2.326-.025-2.33 .034-2.337 .03-2.314 .026-2.273 .022-2.212 .019-2.151 .016-2.042 .01-1.884 .004-1.669 .002-1.427 .004-1.161H-.001C.099-1.175 .21-1.18 .336-1.179 .66-1.179 .911-1.114 1.088-.986 1.266-.857 1.354-.676 1.354-.442 1.354-.225 1.28-.065 1.13 .039 .98 .144 .748 .196 .437 .196 .389 .196 .336 .195 .279 .194 .224 .192 .161 .19 .092 .185 .04 .182-.022 .181-.097 .181-.173 .181-.26 .182-.36 .185-.355 .161-.351 .119-.348 .058-.346-.001-.342-.111-.336-.267-.331-.508-.33-.777-.33-1.073-.33-1.372-.333-1.642-.336-1.884-.342-2.041-.346-2.149-.347-2.209" fill="#004e95"/>
<path transform="matrix(1,0,0,-1,61.5053,35.9836)" d="M0 0V0L.335-.732 .373-.818C.256-.832 .129-.841-.007-.843-.144-.845-.269-.838-.383-.822L-.342-.728C-.22-.46-.16-.326-.16-.326-.16-.326-.106-.217 0 0M-1.106-1.886C-1.138-1.947-1.16-1.987-1.173-2.002-1.128-1.996-1.077-1.992-1.02-1.992-.962-1.992-.91-1.996-.865-2.002-.847-1.93-.828-1.863-.806-1.803-.785-1.741-.751-1.658-.704-1.55-.642-1.397-.569-1.232-.489-1.058-.347-1.031-.184-1.021-.001-1.027 .177-1.03 .338-1.04 .48-1.058L.696-1.55C.747-1.668 .785-1.756 .807-1.817 .828-1.878 .847-1.94 .864-2.002 .925-1.996 .997-1.992 1.076-1.992 1.155-1.992 1.227-1.996 1.289-2.002L1.064-1.55C.95-1.312 .824-1.044 .687-.745 .457-.243 .27 .178 .127 .519H.081 .035C-.106 .175-.296-.247-.537-.749-.677-1.047-.808-1.313-.929-1.55-1.014-1.714-1.073-1.826-1.106-1.886" fill="#004e95"/>
<path transform="matrix(1,0,0,-1,63.6429,35.637)" d="M0 0C.097 .006 .205 .012 .322 .013 .525 .013 .68-.026 .787-.102 .895-.179 .949-.288 .949-.432 .949-.587 .878-.712 .738-.804 .598-.897 .411-.943 .177-.943 .114-.941 .056-.944 0-.948ZM-.347-2.223C-.351-2.285-.355-2.327-.36-2.349-.302-2.343-.236-2.339-.162-2.339-.09-2.339-.023-2.343 .034-2.349 .03-2.326 .026-2.283 .022-2.223 .02-2.163 .016-2.054 .01-1.897 .006-1.663 .003-1.4 .003-1.107H-.001 .13C.263-1.256 .413-1.432 .579-1.633L.795-1.897C.896-2.018 .971-2.109 1.016-2.169 1.062-2.229 1.101-2.289 1.133-2.349 1.203-2.343 1.284-2.339 1.375-2.339 1.466-2.339 1.546-2.343 1.616-2.349 1.601-2.337 1.567-2.3 1.513-2.24 1.458-2.179 1.359-2.065 1.212-1.897L1.002-1.652C.82-1.437 .665-1.249 .535-1.084 .721-1.054 .882-.999 1.017-.917 1.227-.789 1.331-.621 1.331-.414 1.331-.215 1.26-.066 1.119 .034 .977 .134 .764 .183 .478 .183 .434 .183 .382 .183 .324 .181 .266 .179 .201 .177 .13 .171 .086 .17 .023 .17-.059 .171-.139 .173-.24 .177-.36 .183-.355 .16-.351 .119-.348 .059-.346-.003-.342-.112-.336-.269-.333-.509-.33-.78-.33-1.084-.33-1.383-.333-1.653-.336-1.896-.342-2.054-.346-2.163-.347-2.223" fill="#004e95"/>
<path transform="matrix(1,0,0,-1,66.3028,37.5356)" d="M0 0C.004 .243 .005 .513 .005 .81 .007 1.227 .003 1.586-.006 1.886L-.21 1.884C-.336 1.884-.463 1.88-.59 1.874-.716 1.867-.802 1.86-.846 1.85-.838 1.887-.834 1.929-.834 1.977-.834 2.025-.838 2.067-.846 2.104-.704 2.095-.546 2.087-.368 2.08-.19 2.074-.053 2.07 .043 2.07H.144 .246C.348 2.07 .49 2.074 .668 2.08 .845 2.087 1.002 2.095 1.136 2.104 1.127 2.067 1.123 2.025 1.123 1.977 1.123 1.929 1.127 1.887 1.136 1.85 1.088 1.86 1.002 1.867 .875 1.874 .748 1.88 .622 1.884 .499 1.884H.354C.346 1.586 .342 1.228 .342 .812 .342 .511 .343 .24 .347 0 .352-.156 .355-.264 .359-.325 .361-.386 .365-.427 .37-.45 .312-.444 .247-.44 .174-.44 .1-.44 .035-.444-.023-.45-.018-.427-.014-.384-.012-.324-.009-.264-.005-.156 0 0" fill="#004e95"/>
<path transform="matrix(1,0,0,-1,68.2274,37.5341)" d="M0 0C.006-.154 .01-.26 .015-.321 .019-.381 .023-.425 .03-.452-.012-.446-.057-.442-.109-.442-.161-.442-.208-.446-.248-.452-.243-.429-.239-.387-.237-.326-.234-.266-.23-.157-.226 0-.222 .243-.22 .514-.22 .812-.22 1.11-.222 1.378-.226 1.617-.23 1.774-.234 1.881-.237 1.943-.239 2.003-.243 2.045-.248 2.068H-.189-.129C.199 1.715 .616 1.283 1.124 .771L1.755 .144 1.758 .79C1.758 1.1 1.755 1.379 1.75 1.628 1.745 1.786 1.741 1.894 1.738 1.956 1.735 2.015 1.731 2.058 1.727 2.08 1.766 2.072 1.811 2.068 1.863 2.068 1.914 2.068 1.958 2.072 1.998 2.08 1.993 2.058 1.989 2.015 1.987 1.956 1.984 1.894 1.98 1.786 1.976 1.628 1.972 1.38 1.97 1.101 1.97 .791 1.97 .279 1.976-.148 1.987-.491H1.931 1.875C1.549-.138 1.132 .295 .622 .807L-.013 1.439V.813C-.012 .511-.008 .24 0 0" fill="#004e95"/>
<path transform="matrix(1,0,0,-1,70.9523,38.003099)" d="M0 0C.004 .023 .008 .066 .012 .126 .014 .187 .018 .295 .023 .452 .027 .698 .029 .975 .029 1.284 .029 1.594 .027 1.87 .023 2.114 .018 2.27 .014 2.379 .012 2.44 .008 2.499 .004 2.541 0 2.566 .045 2.558 .121 2.551 .226 2.545 .331 2.54 .439 2.538 .547 2.538H.839C.956 2.538 1.062 2.54 1.155 2.545 1.247 2.551 1.328 2.56 1.395 2.571 1.388 2.534 1.384 2.491 1.384 2.444 1.384 2.397 1.388 2.355 1.395 2.318 1.351 2.328 1.273 2.335 1.163 2.343 1.052 2.348 .945 2.352 .839 2.352H.703C.585 2.353 .474 2.35 .37 2.347L.359 1.427 .702 1.428C.815 1.428 .93 1.431 1.05 1.438 1.169 1.445 1.251 1.452 1.297 1.461 1.289 1.424 1.285 1.382 1.285 1.334 1.285 1.288 1.289 1.246 1.297 1.209 1.251 1.218 1.169 1.225 1.05 1.233 .93 1.238 .815 1.241 .702 1.241L.36 1.243C.36 .85 .363 .508 .37 .218L.631 .215H.76C.877 .215 .999 .218 1.126 .226 1.254 .234 1.344 .243 1.395 .253 1.388 .215 1.384 .172 1.384 .122 1.384 .075 1.388 .033 1.395-.005 1.341 .004 1.258 .011 1.147 .018 1.036 .025 .933 .027 .839 .027H.547C.447 .027 .344 .025 .24 .02 .134 .014 .055 .008 0 0" fill="#004e95"/>
<path transform="matrix(1,0,0,-1,73.3821,35.637)" d="M0 0C.097 .006 .205 .012 .324 .013 .525 .013 .68-.026 .787-.102 .895-.179 .95-.288 .95-.432 .95-.587 .88-.712 .739-.804 .599-.897 .411-.943 .177-.943 .116-.941 .057-.944 0-.948ZM-.347-2.223C-.351-2.285-.355-2.327-.359-2.349-.301-2.343-.236-2.339-.162-2.339-.09-2.339-.023-2.343 .035-2.349 .03-2.326 .026-2.283 .022-2.223 .02-2.163 .016-2.054 .012-1.897 .007-1.663 .004-1.4 .004-1.107H0 .13C.262-1.256 .413-1.432 .579-1.633L.795-1.897C.898-2.018 .972-2.109 1.016-2.169 1.062-2.229 1.101-2.289 1.133-2.349 1.205-2.343 1.285-2.339 1.376-2.339 1.466-2.339 1.546-2.343 1.618-2.349 1.602-2.337 1.567-2.3 1.514-2.24 1.459-2.179 1.359-2.065 1.213-1.897L1.003-1.652C.821-1.437 .665-1.249 .535-1.084 .722-1.054 .883-.999 1.017-.917 1.228-.789 1.332-.621 1.332-.414 1.332-.215 1.26-.066 1.119 .034 .977 .134 .764 .183 .48 .183 .434 .183 .382 .183 .325 .181 .266 .179 .201 .177 .13 .171 .086 .17 .023 .17-.058 .171-.139 .173-.239 .177-.359 .183-.355 .16-.351 .119-.347 .059-.344-.003-.34-.112-.337-.269-.333-.509-.33-.78-.33-1.084-.33-1.383-.333-1.653-.337-1.896-.34-2.054-.344-2.163-.347-2.223" fill="#004e95"/>
</g>
</g>
</svg>
